<mxfile host="app.diagrams.net" modified="2022-04-02T17:16:08.706Z" agent="5.0 (Windows NT 10.0; Win64; x64) AppleWebKit/537.36 (KHTML, like Gecko) Chrome/99.0.4844.84 Safari/537.36" etag="E8vdBM47wy-eARcxYLXR" version="17.4.0" type="github">
  <diagram id="GcERge5uJeue2Id1lJ1n" name="Page-1">
    <mxGraphModel dx="1038" dy="547" grid="1" gridSize="10" guides="1" tooltips="1" connect="1" arrows="1" fold="1" page="1" pageScale="1" pageWidth="850" pageHeight="1100" math="0" shadow="0">
      <root>
        <mxCell id="0" />
        <mxCell id="1" parent="0" />
        <mxCell id="C27D3CF7ukaGN8gM3yJd-1" value="&lt;font face=&quot;Times New Roman&quot;&gt;Read amount required&lt;/font&gt;" style="ellipse;whiteSpace=wrap;html=1;" vertex="1" parent="1">
          <mxGeometry x="382.5" width="88" height="40" as="geometry" />
        </mxCell>
        <mxCell id="C27D3CF7ukaGN8gM3yJd-2" value="" style="endArrow=classic;html=1;rounded=0;" edge="1" parent="1">
          <mxGeometry width="50" height="50" relative="1" as="geometry">
            <mxPoint x="425" y="40" as="sourcePoint" />
            <mxPoint x="425" y="70" as="targetPoint" />
          </mxGeometry>
        </mxCell>
        <mxCell id="C27D3CF7ukaGN8gM3yJd-4" value="&lt;font face=&quot;Times New Roman&quot;&gt;Touch card to POS&lt;/font&gt;" style="rounded=0;whiteSpace=wrap;html=1;" vertex="1" parent="1">
          <mxGeometry x="383" y="70" width="87" height="30" as="geometry" />
        </mxCell>
        <mxCell id="C27D3CF7ukaGN8gM3yJd-5" value="&lt;font face=&quot;Times New Roman&quot;&gt;is &lt;br&gt;amount &lt;br&gt;&amp;gt;= 100&lt;br&gt;?&lt;/font&gt;" style="rhombus;whiteSpace=wrap;html=1;" vertex="1" parent="1">
          <mxGeometry x="388" y="120" width="75" height="70" as="geometry" />
        </mxCell>
        <mxCell id="C27D3CF7ukaGN8gM3yJd-8" value="" style="endArrow=classic;html=1;rounded=0;endSize=2;startSize=2;" edge="1" parent="1">
          <mxGeometry width="50" height="50" relative="1" as="geometry">
            <mxPoint x="425" y="100" as="sourcePoint" />
            <mxPoint x="425" y="120" as="targetPoint" />
          </mxGeometry>
        </mxCell>
        <mxCell id="C27D3CF7ukaGN8gM3yJd-12" value="" style="endArrow=classic;html=1;rounded=0;startSize=2;endSize=2;exitX=0;exitY=0.5;exitDx=0;exitDy=0;entryX=0.5;entryY=0;entryDx=0;entryDy=0;" edge="1" parent="1" source="C27D3CF7ukaGN8gM3yJd-5" target="C27D3CF7ukaGN8gM3yJd-52">
          <mxGeometry width="50" height="50" relative="1" as="geometry">
            <mxPoint x="385" y="190" as="sourcePoint" />
            <mxPoint x="230" y="200" as="targetPoint" />
          </mxGeometry>
        </mxCell>
        <mxCell id="C27D3CF7ukaGN8gM3yJd-13" value="" style="endArrow=classic;html=1;rounded=0;startSize=2;endSize=2;exitX=1;exitY=0.5;exitDx=0;exitDy=0;" edge="1" parent="1" source="C27D3CF7ukaGN8gM3yJd-5">
          <mxGeometry width="50" height="50" relative="1" as="geometry">
            <mxPoint x="468" y="190" as="sourcePoint" />
            <mxPoint x="490" y="210" as="targetPoint" />
          </mxGeometry>
        </mxCell>
        <mxCell id="C27D3CF7ukaGN8gM3yJd-17" style="edgeStyle=orthogonalEdgeStyle;rounded=0;orthogonalLoop=1;jettySize=auto;html=1;startSize=2;endSize=2;entryX=0;entryY=0.5;entryDx=0;entryDy=0;exitX=0.5;exitY=1;exitDx=0;exitDy=0;" edge="1" parent="1" source="C27D3CF7ukaGN8gM3yJd-52" target="C27D3CF7ukaGN8gM3yJd-16">
          <mxGeometry relative="1" as="geometry">
            <mxPoint x="378" y="510" as="targetPoint" />
            <mxPoint x="228" y="210" as="sourcePoint" />
            <Array as="points">
              <mxPoint x="228" y="205" />
              <mxPoint x="228" y="515" />
            </Array>
          </mxGeometry>
        </mxCell>
        <mxCell id="C27D3CF7ukaGN8gM3yJd-14" value="YES" style="text;html=1;strokeColor=none;fillColor=none;align=center;verticalAlign=middle;whiteSpace=wrap;rounded=0;" vertex="1" parent="1">
          <mxGeometry x="335" y="140" width="15" height="5" as="geometry" />
        </mxCell>
        <mxCell id="C27D3CF7ukaGN8gM3yJd-15" value="NO" style="text;html=1;align=center;verticalAlign=middle;resizable=0;points=[];autosize=1;strokeColor=none;fillColor=none;" vertex="1" parent="1">
          <mxGeometry x="468" y="155" width="30" height="20" as="geometry" />
        </mxCell>
        <mxCell id="C27D3CF7ukaGN8gM3yJd-16" value="&lt;font face=&quot;Times New Roman&quot;&gt;STOP&lt;/font&gt;" style="ellipse;whiteSpace=wrap;html=1;" vertex="1" parent="1">
          <mxGeometry x="383" y="490" width="100" height="50" as="geometry" />
        </mxCell>
        <mxCell id="C27D3CF7ukaGN8gM3yJd-21" value="&lt;font face=&quot;Times New Roman&quot;&gt;read PIN&lt;/font&gt;" style="rounded=0;whiteSpace=wrap;html=1;" vertex="1" parent="1">
          <mxGeometry x="468" y="210" width="50" height="20" as="geometry" />
        </mxCell>
        <mxCell id="C27D3CF7ukaGN8gM3yJd-34" value="" style="edgeStyle=orthogonalEdgeStyle;rounded=0;orthogonalLoop=1;jettySize=auto;html=1;startSize=2;endSize=2;" edge="1" parent="1" source="C27D3CF7ukaGN8gM3yJd-23" target="C27D3CF7ukaGN8gM3yJd-33">
          <mxGeometry relative="1" as="geometry" />
        </mxCell>
        <mxCell id="C27D3CF7ukaGN8gM3yJd-23" value="&lt;font face=&quot;Times New Roman&quot;&gt;is PIN &lt;br&gt;wrong and &amp;lt; 3 tries?&lt;/font&gt;" style="rhombus;whiteSpace=wrap;html=1;" vertex="1" parent="1">
          <mxGeometry x="490" y="250" width="88" height="70" as="geometry" />
        </mxCell>
        <mxCell id="C27D3CF7ukaGN8gM3yJd-28" value="" style="endArrow=classic;html=1;rounded=0;startSize=2;endSize=2;entryX=0.5;entryY=0;entryDx=0;entryDy=0;" edge="1" parent="1" target="C27D3CF7ukaGN8gM3yJd-23">
          <mxGeometry width="50" height="50" relative="1" as="geometry">
            <mxPoint x="518" y="220" as="sourcePoint" />
            <mxPoint x="533.85" y="247.02" as="targetPoint" />
          </mxGeometry>
        </mxCell>
        <mxCell id="C27D3CF7ukaGN8gM3yJd-43" style="edgeStyle=orthogonalEdgeStyle;rounded=0;orthogonalLoop=1;jettySize=auto;html=1;exitX=0.5;exitY=0;exitDx=0;exitDy=0;startSize=2;endSize=2;" edge="1" parent="1" source="C27D3CF7ukaGN8gM3yJd-33" target="C27D3CF7ukaGN8gM3yJd-21">
          <mxGeometry relative="1" as="geometry">
            <mxPoint x="520" y="220" as="targetPoint" />
            <Array as="points">
              <mxPoint x="675" y="220" />
            </Array>
          </mxGeometry>
        </mxCell>
        <mxCell id="C27D3CF7ukaGN8gM3yJd-56" style="edgeStyle=orthogonalEdgeStyle;rounded=0;orthogonalLoop=1;jettySize=auto;html=1;exitX=0.5;exitY=1;exitDx=0;exitDy=0;startSize=2;endSize=2;" edge="1" parent="1" source="C27D3CF7ukaGN8gM3yJd-33">
          <mxGeometry relative="1" as="geometry">
            <mxPoint x="675" y="340" as="targetPoint" />
          </mxGeometry>
        </mxCell>
        <mxCell id="C27D3CF7ukaGN8gM3yJd-33" value="&lt;font face=&quot;Times New Roman&quot;&gt;tries = tries +1&lt;/font&gt;" style="rounded=0;whiteSpace=wrap;html=1;" vertex="1" parent="1">
          <mxGeometry x="640" y="270" width="70" height="30" as="geometry" />
        </mxCell>
        <mxCell id="C27D3CF7ukaGN8gM3yJd-35" value="&lt;span&gt;YES&lt;/span&gt;" style="text;html=1;align=center;verticalAlign=middle;resizable=0;points=[];autosize=1;strokeColor=none;fillColor=none;" vertex="1" parent="1">
          <mxGeometry x="590" y="270" width="40" height="20" as="geometry" />
        </mxCell>
        <mxCell id="C27D3CF7ukaGN8gM3yJd-45" value="" style="endArrow=classic;html=1;rounded=0;startSize=2;endSize=2;" edge="1" parent="1">
          <mxGeometry width="50" height="50" relative="1" as="geometry">
            <mxPoint x="490" y="284.5" as="sourcePoint" />
            <mxPoint x="430" y="284.5" as="targetPoint" />
          </mxGeometry>
        </mxCell>
        <mxCell id="C27D3CF7ukaGN8gM3yJd-47" value="NO" style="text;html=1;align=center;verticalAlign=middle;resizable=0;points=[];autosize=1;strokeColor=none;fillColor=none;" vertex="1" parent="1">
          <mxGeometry x="448" y="270" width="30" height="20" as="geometry" />
        </mxCell>
        <mxCell id="C27D3CF7ukaGN8gM3yJd-51" value="" style="endArrow=classic;html=1;rounded=0;startSize=2;endSize=2;exitX=0.5;exitY=1;exitDx=0;exitDy=0;" edge="1" parent="1" source="C27D3CF7ukaGN8gM3yJd-55">
          <mxGeometry width="50" height="50" relative="1" as="geometry">
            <mxPoint x="401" y="300" as="sourcePoint" />
            <mxPoint x="390" y="500" as="targetPoint" />
          </mxGeometry>
        </mxCell>
        <mxCell id="C27D3CF7ukaGN8gM3yJd-52" value="&lt;font face=&quot;Times New Roman&quot;&gt;0 tries&lt;/font&gt;" style="rhombus;whiteSpace=wrap;html=1;" vertex="1" parent="1">
          <mxGeometry x="190" y="155" width="80" height="50" as="geometry" />
        </mxCell>
        <mxCell id="C27D3CF7ukaGN8gM3yJd-55" value="&lt;font face=&quot;Times New Roman&quot;&gt;payment rejected&lt;/font&gt;" style="rhombus;whiteSpace=wrap;html=1;" vertex="1" parent="1">
          <mxGeometry x="350" y="260" width="80" height="50" as="geometry" />
        </mxCell>
        <mxCell id="C27D3CF7ukaGN8gM3yJd-63" value="" style="edgeStyle=orthogonalEdgeStyle;rounded=0;orthogonalLoop=1;jettySize=auto;html=1;fontFamily=Times New Roman;startSize=2;endSize=2;" edge="1" parent="1">
          <mxGeometry relative="1" as="geometry">
            <mxPoint x="608.75" y="379.5" as="sourcePoint" />
            <mxPoint x="548.75" y="379.5" as="targetPoint" />
            <Array as="points">
              <mxPoint x="558.75" y="379.5" />
            </Array>
          </mxGeometry>
        </mxCell>
        <mxCell id="C27D3CF7ukaGN8gM3yJd-74" style="edgeStyle=orthogonalEdgeStyle;rounded=0;orthogonalLoop=1;jettySize=auto;html=1;exitX=0.5;exitY=1;exitDx=0;exitDy=0;entryX=0.5;entryY=0;entryDx=0;entryDy=0;fontFamily=Times New Roman;startSize=2;endSize=2;" edge="1" parent="1" source="C27D3CF7ukaGN8gM3yJd-60" target="C27D3CF7ukaGN8gM3yJd-71">
          <mxGeometry relative="1" as="geometry" />
        </mxCell>
        <mxCell id="C27D3CF7ukaGN8gM3yJd-60" value="&lt;span&gt;&lt;font face=&quot;Times New Roman&quot;&gt;is amount requested &lt;br&gt;&lt;/font&gt;&lt;/span&gt;&lt;span style=&quot;color: rgb(77 , 81 , 86) ; font-size: 14px ; text-align: left ; background-color: rgb(255 , 255 , 255)&quot;&gt;&lt;font face=&quot;Times New Roman&quot;&gt;≤&lt;/font&gt;&lt;/span&gt;&lt;span&gt;&lt;font face=&quot;Times New Roman&quot;&gt;&amp;nbsp;available funds?&lt;/font&gt;&lt;/span&gt;" style="rhombus;whiteSpace=wrap;html=1;" vertex="1" parent="1">
          <mxGeometry x="608.75" y="340" width="132.5" height="80" as="geometry" />
        </mxCell>
        <mxCell id="C27D3CF7ukaGN8gM3yJd-69" style="edgeStyle=orthogonalEdgeStyle;rounded=0;orthogonalLoop=1;jettySize=auto;html=1;exitX=0.5;exitY=1;exitDx=0;exitDy=0;entryX=0.5;entryY=0;entryDx=0;entryDy=0;fontFamily=Times New Roman;startSize=2;endSize=2;" edge="1" parent="1" source="C27D3CF7ukaGN8gM3yJd-62" target="C27D3CF7ukaGN8gM3yJd-68">
          <mxGeometry relative="1" as="geometry" />
        </mxCell>
        <mxCell id="C27D3CF7ukaGN8gM3yJd-62" value="amount = funds - amount" style="rounded=0;whiteSpace=wrap;html=1;fontFamily=Times New Roman;" vertex="1" parent="1">
          <mxGeometry x="480" y="360" width="68" height="40" as="geometry" />
        </mxCell>
        <mxCell id="C27D3CF7ukaGN8gM3yJd-65" value="&lt;span style=&quot;font-family: &amp;#34;helvetica&amp;#34;&quot;&gt;YES&lt;/span&gt;" style="text;html=1;align=center;verticalAlign=middle;resizable=0;points=[];autosize=1;strokeColor=none;fillColor=none;fontFamily=Times New Roman;" vertex="1" parent="1">
          <mxGeometry x="560" y="360" width="40" height="20" as="geometry" />
        </mxCell>
        <mxCell id="C27D3CF7ukaGN8gM3yJd-70" style="edgeStyle=orthogonalEdgeStyle;rounded=0;orthogonalLoop=1;jettySize=auto;html=1;exitX=0.5;exitY=1;exitDx=0;exitDy=0;fontFamily=Times New Roman;startSize=2;endSize=2;" edge="1" parent="1" source="C27D3CF7ukaGN8gM3yJd-68">
          <mxGeometry relative="1" as="geometry">
            <mxPoint x="480" y="520" as="targetPoint" />
            <Array as="points">
              <mxPoint x="514" y="520" />
            </Array>
          </mxGeometry>
        </mxCell>
        <mxCell id="C27D3CF7ukaGN8gM3yJd-68" value="&lt;span style=&quot;color: rgb(0 , 0 , 0) ; font-family: &amp;#34;times new roman&amp;#34; ; font-size: 12px ; font-style: normal ; font-weight: 400 ; letter-spacing: normal ; text-align: center ; text-indent: 0px ; text-transform: none ; word-spacing: 0px ; background-color: rgb(248 , 249 , 250) ; display: inline ; float: none&quot;&gt;payment accepted&lt;/span&gt;" style="rhombus;whiteSpace=wrap;html=1;fontFamily=Times New Roman;" vertex="1" parent="1">
          <mxGeometry x="474" y="420" width="80" height="60" as="geometry" />
        </mxCell>
        <mxCell id="C27D3CF7ukaGN8gM3yJd-76" style="edgeStyle=orthogonalEdgeStyle;rounded=0;orthogonalLoop=1;jettySize=auto;html=1;fontFamily=Times New Roman;startSize=2;endSize=2;" edge="1" parent="1">
          <mxGeometry relative="1" as="geometry">
            <mxPoint x="480" y="520" as="targetPoint" />
            <mxPoint x="675" y="500" as="sourcePoint" />
            <Array as="points">
              <mxPoint x="675" y="520" />
            </Array>
          </mxGeometry>
        </mxCell>
        <mxCell id="C27D3CF7ukaGN8gM3yJd-71" value="payment &lt;br&gt;reject" style="rhombus;whiteSpace=wrap;html=1;fontFamily=Times New Roman;" vertex="1" parent="1">
          <mxGeometry x="635" y="460" width="80" height="50" as="geometry" />
        </mxCell>
        <mxCell id="C27D3CF7ukaGN8gM3yJd-77" value="&lt;span style=&quot;font-family: &amp;#34;helvetica&amp;#34;&quot;&gt;NO&lt;/span&gt;" style="text;html=1;align=center;verticalAlign=middle;resizable=0;points=[];autosize=1;strokeColor=none;fillColor=none;fontFamily=Times New Roman;" vertex="1" parent="1">
          <mxGeometry x="680" y="430" width="30" height="20" as="geometry" />
        </mxCell>
      </root>
    </mxGraphModel>
  </diagram>
</mxfile>
